Toto Falling Between Live Mkv 720p Dts 

Track Listing:
"Falling in Between"
"King of the World"
"Pamela"
"Bottom of Your Soul"
"Caught in the Balance"
"Don't Chain My Heart"
"Hold the Line"
"Stop Loving You"
"I'll Be Over You"
"Cruel"
Keyboard solo--Greg Phillinganes
"Rosanna"
"I'll Supply the Love"
"Isolation"
"Gift of Faith"
"Kingdom of Desire"
Guitar solo--Steve Lukather
"Hydra"
Drum solo--Simon Phillips
"Taint Your World"
"Gypsy Train"
"Africa"
"Drag Him to the Roof"    

General 
Unique ID : 216162439325530713284377422593562262978 (0xA29F5F18FA592C81B3C16B11BC0C3DC2) 
Toto Falling Between Live Mkv 720p Dts 
Format : Matroska 
Format version : Version 2 
File size : 3.46 GiB 
Duration : 1h 52mn 
Overall bit rate mode : Variable 
Overall bit rate : 4 399 Kbps 
Movie name : video 
Encoded date : UTC 2013-01-06 04:00:14 
Writing application : mkvmerge v5.7.0 ('The Whirlwind') built on Jul 8 2012 20:08:51 
Writing library : libebml v1.2.3 + libmatroska v1.3.0 

Video 
ID : 1 
Format : AVC 
Format/Info : Advanced Video Codec 
Format profile : High@L4.0 
Format settings, CABAC : Yes 
Format settings, ReFrames : 3 frames 
Codec ID : V_MPEG4/ISO/AVC 
Duration : 1h 52mn 
Bit rate mode : Variable 
Bit rate : 2 802 Kbps 
Maximum bit rate : 25.0 Mbps 
Width : 1 280 pixels 
Height : 720 pixels 
Display aspect ratio : 16:9 
Frame rate mode : Constant 
Frame rate : 29.970 fps 
Color space : YUV 
Chroma subsampling : 4:2:0 
Bit depth : 8 bits 
Scan type : Progressive 
Bits/(Pixel*Frame) : 0.101 
Stream size : 2.21 GiB (64%) 
Writing library : x264 core 125 r2208 d9d2288 
Encoding settings : cabac=1 / ref=3 / deblock=1:0:0 / analyse=0x3:0x113 / me=hex / subme=7 / psy=1 / psy_rd=1.00:0.00 / mixed_ref=1 / me_range=16 / chroma_me=1 / trellis=1 / 8x8dct=1 / cqm=0 / deadzone=21,11 / fast_pskip=1 / chroma_qp_offset=-2 / threads=12 / lookahead_threads=2 / sliced_threads=0 / nr=0 / decimate=1 / interlaced=0 / bluray_compat=0 / constrained_intra=0 / bframes=3 / b_pyramid=0 / b_adapt=1 / b_bias=0 / direct=1 / weightb=1 / open_gop=0 / weightp=2 / keyint=300 / keyint_min=30 / scenecut=40 / intra_refresh=0 / rc_lookahead=40 / rc=crf / mbtree=1 / crf=24.0 / qcomp=0.60 / qpmin=0 / qpmax=69 / qpstep=4 / vbv_maxrate=25000 / vbv_bufsize=25000 / crf_max=0.0 / nal_hrd=vbr / ip_ratio=1.40 / aq=1:1.00 
Default : Yes 
Forced : No 

Audio 
ID : 2 
Format : DTS 
Format/Info : Digital Theater Systems 
Mode : 16 
Format settings, Endianness : Big 
Codec ID : A_DTS 
Duration : 1h 52mn 
Bit rate mode : Constant 
Bit rate : 1 509 Kbps 
Channel(s) : 6 channels 
Channel positions : Front: L C R, Side: L R, LFE 
Sampling rate : 48.0 KHz 
Bit depth : 24 bits 
Compression mode : Lossy 
Stream size : 1.19 GiB (34%) 
Language : English 
Default : Yes 
Forced : No 
